<?xml version="1.0" standalone="no"?>
<!DOCTYPE svg PUBLIC "-//W3C//DTD SVG 20010904//EN"
 "http://www.w3.org/TR/2001/REC-SVG-20010904/DTD/svg10.dtd">
<svg version="1.0" xmlns="http://www.w3.org/2000/svg"
 width="1289.000000pt" height="1289.000000pt" viewBox="0 0 1289.000000 1289.000000"
 preserveAspectRatio="xMidYMid meet">
<metadata>
Created by potrace 1.11, written by Peter Selinger 2001-2013
</metadata>
<g transform="translate(0.000000,1289.000000) scale(0.100000,-0.100000)"
fill="#000000" stroke="none">
<path d="M9702 12216 c-30 -7 -93 -33 -140 -56 -128 -63 -253 -192 -394 -405
-262 -397 -426 -769 -538 -1220 -85 -342 -105 -545 -120 -1214 -5 -238 -11
-436 -14 -438 -3 -3 -63 11 -133 31 -300 84 -666 148 -1168 203 -232 25 -831
25 -1000 0 -437 -64 -782 -171 -1149 -354 -128 -64 -669 -380 -736 -430 -162
-122 -459 -424 -639 -651 -350 -440 -595 -915 -715 -1387 -31 -123 -438 -1331
-507 -1509 -75 -190 -161 -590 -229 -1065 -63 -443 -85 -749 -77 -1116 5 -259
7 -275 37 -395 98 -395 267 -832 396 -1027 104 -157 279 -311 454 -398 84 -42
306 -112 442 -139 255 -51 472 -57 763 -19 114 15 254 17 1120 18 947 1 1104
5 1535 35 200 14 558 12 680 -4 58 -8 164 -28 235 -45 189 -44 279 -54 480
-54 264 0 585 37 760 88 113 33 292 118 393 187 166 114 330 298 426 479 95
178 227 547 291 812 76 314 108 591 108 927 -1 687 -173 1366 -528 2085 l-94
190 127 188 c513 756 829 1479 941 2152 39 236 46 326 46 610 -1 386 -36 624
-149 1005 -179 610 -233 889 -243 1261 -8 323 19 537 106 827 49 161 57 227
41 322 -35 205 -209 395 -443 482 -70 27 -98 31 -197 34 -74 2 -134 -1 -168
-10z m174 -515 c50 -23 104 -76 127 -123 32 -68 31 -105 -7 -243 -79 -286
-108 -494 -108 -775 0 -399 67 -736 234 -1178 81 -217 128 -392 160 -593 29
-193 32 -610 5 -824 -119 -930 -584 -1917 -1186 -2515 -310 -308 -675 -519
-1031 -596 -66 -14 -128 -19 -275 -19 -214 0 -314 16 -495 81 -106 38 -137 41
-180 19 -56 -29 -79 -122 -44 -175 58 -87 201 -208 313 -265 189 -95 480 -101
783 -16 245 70 609 238 928 430 l154 94 29 -34 c52 -60 148 -212 199 -314 205
-406 310 -930 310 -1535 -1 -734 -165 -1390 -461 -1835 -95 -144 -103 -151
-206 -180 -242 -69 -408 -95 -666 -102 -281 -8 -505 15 -783 78 l-94 22 -17
86 c-35 185 -40 353 -22 696 29 538 19 715 -53 955 -28 93 -26 90 -97 80 -110
-15 -179 -64 -228 -160 -52 -102 -56 -143 -66 -620 -11 -548 -24 -938 -32
-946 -15 -16 -331 -79 -522 -105 -196 -27 -632 -37 -842 -19 -178 14 -360 40
-547 77 -116 22 -139 30 -146 47 -5 12 -22 269 -40 571 -17 303 -33 567 -37
589 l-5 39 -77 -6 c-141 -10 -240 -67 -283 -164 -34 -76 -41 -203 -35 -645 l5
-417 -77 -25 c-316 -105 -618 -111 -1041 -20 -163 35 -383 95 -397 108 -21 20
-141 251 -196 377 -134 308 -212 630 -237 989 -13 181 -9 309 21 670 47 565
127 1044 224 1343 41 129 122 304 134 291 5 -5 71 -103 146 -219 195 -298 267
-388 423 -528 271 -243 619 -407 1007 -474 125 -21 452 -24 570 -5 189 31 360
85 510 159 324 162 556 392 706 698 96 197 169 453 169 596 0 81 -35 209 -70
258 -30 41 -125 95 -155 89 -19 -3 -113 -220 -191 -438 -64 -177 -92 -242
-148 -340 -349 -611 -1020 -773 -1753 -425 -418 199 -711 520 -843 925 -58
175 -74 285 -73 490 1 340 71 579 297 1015 491 949 1223 1599 2066 1831 137
38 252 52 650 81 450 31 1426 21 1464 -17 5 -5 15 -6 22 -3 8 3 31 -2 52 -10
20 -8 69 -18 107 -21 39 -4 129 -23 200 -41 179 -47 265 -58 445 -58 216 0
450 42 450 81 0 9 -7 73 -15 142 -44 374 -62 799 -46 1090 36 653 176 1155
447 1601 169 279 241 348 369 348 38 0 75 -6 101 -18z"/>
<path d="M7802 7744 c-161 -80 -160 -310 2 -389 105 -52 219 -21 283 77 25 36
28 51 28 119 0 70 -3 82 -30 121 -20 28 -49 52 -84 71 -71 35 -129 36 -199 1z"/>
<path d="M6095 12163 c-128 -7 -397 -35 -558 -59 -1142 -169 -2207 -655 -3103
-1418 -166 -141 -519 -494 -660 -660 -564 -663 -994 -1449 -1228 -2248 -167
-570 -241 -1052 -253 -1643 -10 -507 27 -907 128 -1392 178 -858 555 -1692
1089 -2408 140 -188 423 -525 441 -525 3 0 -7 44 -23 97 -16 54 -45 161 -65
238 l-35 140 -5 319 -6 318 -76 122 c-471 743 -749 1561 -837 2466 -22 217
-25 738 -6 950 97 1082 460 2042 1095 2889 162 216 308 383 521 597 281 280
542 496 851 702 683 455 1465 755 2270 871 297 43 459 54 800 55 401 0 669
-23 1033 -90 283 -51 674 -160 934 -260 50 -19 95 -31 99 -27 4 4 23 46 44 93
20 47 76 163 126 258 l89 173 -28 10 c-617 245 -1240 385 -1897 429 -136 9
-593 11 -740 3z"/>
<path d="M10694 10391 c17 -207 81 -510 188 -881 l62 -215 95 -140 c531 -777
846 -1640 946 -2590 22 -212 31 -680 16 -900 -33 -496 -122 -951 -276 -1410
-242 -727 -613 -1368 -1121 -1937 l-105 -118 -40 -161 c-88 -357 -237 -750
-365 -958 -32 -52 -31 -52 118 62 515 390 1000 912 1372 1474 628 952 971
2021 1015 3165 59 1533 -450 3015 -1441 4198 -111 132 -313 348 -412 440 l-59
55 7 -84z"/>
</g>
</svg>
